<?xml version="1.0" encoding="utf-8"?>
<!-- Generator: Adobe Illustrator 18.1.0, SVG Export Plug-In . SVG Version: 6.00 Build 0)  -->
<!DOCTYPE svg PUBLIC "-//W3C//DTD SVG 1.1//EN" "http://www.w3.org/Graphics/SVG/1.1/DTD/svg11.dtd">
<svg version="1.1" xmlns="http://www.w3.org/2000/svg" xmlns:xlink="http://www.w3.org/1999/xlink" x="0px" y="0px"
	 viewBox="0 0 48 40" enable-background="new 0 0 48 40" xml:space="preserve">
<g id="レイヤー_1">
</g>
<g id="レイヤー_2">
	<path fill="#2EA7E0" d="M48.4,4.8c-1.8,0.8-3.7,1.3-5.7,1.6c2-1.2,3.6-3.2,4.3-5.6c-1.9,1.2-4,2-6.3,2.5c-1.8-2-4.4-3.2-7.2-3.2
		c-5.4,0-9.8,4.5-9.8,10.1c0,0.8,0.1,1.6,0.3,2.3C15.8,12.1,8.6,8.1,3.7,2C2.9,3.4,2.4,5.2,2.4,7c0,3.5,1.7,6.6,4.4,8.4
		c-1.6-0.1-3.1-0.5-4.5-1.3c0,0,0,0.1,0,0.1c0,4.9,3.4,9,7.9,9.9c-0.8,0.2-1.7,0.4-2.6,0.4c-0.6,0-1.3-0.1-1.9-0.2
		c1.3,4,4.9,6.9,9.2,7c-3.4,2.7-7.6,4.3-12.2,4.3c-0.8,0-1.6,0-2.3-0.1c4.4,2.9,9.5,4.5,15.1,4.5c18.1,0,28-15.4,28-28.7
		c0-0.4,0-0.9,0-1.3C45.4,8.6,47.1,6.9,48.4,4.8z"/>
</g>
<g id="レイヤー_3" display="none">
</g>
</svg>
