<?xml version="1.0" encoding="utf-8"?>
<!-- Generator: Adobe Illustrator 18.1.0, SVG Export Plug-In . SVG Version: 6.00 Build 0)  -->
<!DOCTYPE svg PUBLIC "-//W3C//DTD SVG 1.1//EN" "http://www.w3.org/Graphics/SVG/1.1/DTD/svg11.dtd">
<svg version="1.1" xmlns="http://www.w3.org/2000/svg" xmlns:xlink="http://www.w3.org/1999/xlink" x="0px" y="0px"
	 viewBox="0 0 132 118" enable-background="new 0 0 132 118" xml:space="preserve">
<g id="レイヤー_1">
</g>
<g id="レイヤー_2">
	<g>
		<path fill="#EDDC00" d="M131.8,51.7c0-28.6-29.5-51.7-66-51.7c-36.5,0-66,23.2-66,51.7c0,24.2,21.3,44.6,50,50.2l16,16.1l16-16.1
			C110.5,96.3,131.8,76,131.8,51.7z"/>
		<g>
			<path fill="#FFFFFF" d="M66.5,61.5H65c-0.1-1.8-0.2-3.4-0.5-4.7c-0.2-1.4-0.6-2.8-1.1-4.4c-0.5-1.6-1.1-3.4-1.9-5.6
				c-1.1-3.1-1.8-5.5-2.2-7c-0.3-1.5-0.5-3-0.5-4.4c0-2.5,0.6-4.5,1.9-6.2c1.3-1.7,2.9-2.5,4.9-2.5c2.1,0,3.8,0.8,5.1,2.5
				c1.3,1.6,1.9,3.8,1.9,6.4c0,2.5-1,6.4-2.9,11.5c-1.3,3.5-2.1,6.1-2.5,7.9C66.8,56.7,66.6,58.9,66.5,61.5z M65.7,73.4
				c2,0,3.6,0.7,4.9,2c1.3,1.3,2,3,2,4.9c0,1.9-0.7,3.5-2,4.9c-1.3,1.3-3,2-4.9,2c-1.8,0-3.4-0.7-4.8-2c-1.4-1.4-2.1-3-2.1-4.9
				c0-1.2,0.3-2.4,0.9-3.5c0.6-1.1,1.4-1.9,2.5-2.5C63.3,73.7,64.4,73.4,65.7,73.4z"/>
		</g>
	</g>
</g>
<g id="レイヤー_3" display="none">
</g>
</svg>
