<?xml version="1.0" encoding="utf-8"?>
<!-- Generator: Adobe Illustrator 18.1.0, SVG Export Plug-In . SVG Version: 6.00 Build 0)  -->
<!DOCTYPE svg PUBLIC "-//W3C//DTD SVG 1.1//EN" "http://www.w3.org/Graphics/SVG/1.1/DTD/svg11.dtd">
<svg version="1.1" xmlns="http://www.w3.org/2000/svg" xmlns:xlink="http://www.w3.org/1999/xlink" x="0px" y="0px"
	 viewBox="0 0 484 484" enable-background="new 0 0 484 484" xml:space="preserve">
<g id="レイヤー_1">
</g>
<g id="レイヤー_2">
	<g>
		<path opacity="0.5" fill="#2EA7E0" d="M240.9,432.9C135.6,432.9,50,347.3,50,242S135.6,51.1,240.9,51.1
			c105.3,0,190.9,85.6,190.9,190.9S346.2,432.9,240.9,432.9z M240.9,52.1C136.2,52.1,51,137.3,51,242
			c0,104.7,85.2,189.9,189.9,189.9S430.8,346.7,430.8,242C430.8,137.3,345.6,52.1,240.9,52.1z"/>
		<path opacity="0.2" fill="#2EA7E0" d="M242,482.5c-64.2,0-124.6-25-170.1-70.4C26.5,366.6,1.5,306.2,1.5,242s25-124.6,70.4-170.1
			C117.4,26.5,177.8,1.5,242,1.5c64.2,0,124.6,25,170.1,70.4c45.4,45.4,70.4,105.8,70.4,170.1s-25,124.6-70.4,170.1
			C366.6,457.5,306.2,482.5,242,482.5z M242,2.5c-64,0-124.1,24.9-169.4,70.1S2.5,178,2.5,242s24.9,124.1,70.1,169.4
			S178,481.5,242,481.5s124.1-24.9,169.4-70.1c45.2-45.2,70.1-105.4,70.1-169.4s-24.9-124.1-70.1-169.4C366.1,27.4,306,2.5,242,2.5z
			"/>
		<path fill="#2EA7E0" d="M240.9,386c-79.4,0-144-64.6-144-144s64.6-144,144-144c79.4,0,144,64.6,144,144S320.3,386,240.9,386z
			 M240.9,99c-78.8,0-143,64.1-143,143s64.1,143,143,143s143-64.1,143-143S319.7,99,240.9,99z"/>
	</g>
</g>
<g id="レイヤー_3" display="none">
</g>
</svg>
